Coordinates
version=1
nRows=11
nColumns=42
inDegrees=yes

Units are S.I. units (second, meters, Newtons, ...)
If the header above contains a line with 'inDegrees', this indicates whether rotational values are in degrees (yes) or radians (no).

endheader
time	pelvis_tilt	pelvis_list	pelvis_rotation	pelvis_tx	pelvis_ty	pelvis_tz	hip_flexion_r	hip_adduction_r	hip_rotation_r	knee_angle_r	knee_angle_r_beta	ankle_angle_r	subtalar_angle_r	mtp_angle_r	hip_flexion_l	hip_adduction_l	hip_rotation_l	knee_angle_l	knee_angle_l_beta	ankle_angle_l	subtalar_angle_l	mtp_angle_l	lumbar_extension	lumbar_bending	lumbar_rotation	sh_tx_r	sh_ty_r	sh_tz_r	sh_plane_elev_r	sh_elev_r	sh_axial_rot_r	elbow_flex_r	pro_sup_r	sh_tx_l	sh_ty_l	sh_tz_l	sh_plane_elev_l	sh_elev_l	sh_axial_rot_l	elbow_flex_l	pro_sup_l
      4.05084750	     -7.61523643	     -1.24720418	     -0.65685989	      0.28980925	      0.92907640	     -0.00560672	      5.75916567	     -4.90733002	    -13.11735285	      2.59117629	      0.04522456	     -1.09832716	    -10.45389563	     -7.49999987	      8.10655214	     -4.73078266	    -14.78116163	      4.04114244	      0.07053124	      7.95420751	      0.96687620	     -7.49999987	      4.13647071	      3.26928888	     -7.67036608	      0.00115927	     -0.01683938	     -0.00605903	      7.68144376	      5.74209888	     -5.34052103	     25.53451270	    110.60856846	     -0.00154476	      0.02535603	     -0.00416228	     77.47368049	     63.96222404	     -1.72288692	     14.63750858	      2.65958050
      4.06779660	     -7.57815551	     -1.28371941	     -0.57695587	      0.28980777	      0.92670130	     -0.00582113	      5.70432866	     -4.89971698	    -13.08159327	      2.64620796	      0.04618504	     -1.12076855	    -10.56509605	     -7.49999987	      8.09007763	     -4.73753644	    -14.70120756	      4.03267957	      0.07038354	      7.94791181	      0.88954675	     -7.49999987	      4.01181089	      3.27352207	     -7.34830122	     -0.00010332	     -0.01672032	     -0.00605045	      7.81894023	      5.87148307	     -5.15302309	     25.55328710	    109.45977596	     -0.00174748	      0.02585841	     -0.00425671	     77.72399799	     64.04683730	     -2.56312491	     14.99310971	      2.56551633
      4.08474580	     -7.63632180	     -1.29713623	     -0.56452797	      0.28992506	      0.92633057	     -0.00565060	      5.78638411	     -4.88401635	    -12.95623497	      2.70491193	      0.04720962	     -1.10509162	    -10.71499046	     -7.49999987	      8.17019236	     -4.75352417	    -14.78519005	      4.05471548	      0.07076814	      8.13412698	      1.09182340	     -7.49999987	      4.11460999	      3.23351401	     -7.30816963	      0.00001059	     -0.01661368	     -0.00602384	      7.13349609	      5.77628134	     -5.03219612	     25.56694382	    110.56278977	     -0.00183640	      0.02536859	     -0.00428590	     77.65906304	     64.03006122	     -2.52829714	     14.68343396	      2.66782232
      4.10169490	     -7.61355090	     -1.30169454	     -0.49128836	      0.28983985	      0.93011971	     -0.00554121	      5.71861772	     -4.86580293	    -13.01254429	      2.65897933	      0.04640794	     -1.13942890	    -10.63353351	     -7.49999987	      8.14216776	     -4.75594471	    -14.75772272	      4.02530377	      0.07025480	      8.10440207	      1.12381104	     -7.49999987	      4.16600918	      3.18390839	     -8.12663038	      0.00292197	     -0.01655431	     -0.00611390	      7.93276114	      5.71349776	     -4.48435604	     25.50792827	    109.02652649	     -0.00294184	      0.02472700	     -0.00425967	     76.76657452	     63.62123619	     -3.44430022	     14.24266183	      2.79475831
      4.11864410	     -7.55068055	     -1.28567239	     -0.40270549	      0.29378543	      0.92665568	     -0.00999655	      5.57026061	     -4.95408518	    -13.08881542	      2.66643737	      0.04653811	     -1.16389959	    -10.53429524	     -7.49999987	      8.03086914	     -4.67255778	    -14.73723920	      4.01794106	      0.07012630	      8.17256419	      1.06078206	     -7.49999987	      4.05973517	      3.19048239	     -7.57608862	     -0.00049831	     -0.01638387	     -0.00601300	      7.22501441	      5.89849410	     -4.57975675	     25.32732329	    110.38623658	     -0.00235372	      0.02356510	     -0.00434295	     77.55212381	     63.52411102	     -3.46799223	     13.91504577	      2.61429103
      4.13559320	     -7.59295836	     -1.25735305	     -0.42298830	      0.28972641	      0.92428167	     -0.00516134	      5.63762144	     -4.95150934	    -12.93345093	      2.69819368	      0.04709236	     -1.05753696	    -10.74056700	     -7.49999987	      8.06058755	     -4.63728228	    -14.66999572	      4.01388583	      0.07005552	      8.30324716	      0.81960163	     -7.49999987	      4.10890783	      3.04176193	     -7.40393203	     -0.00111269	     -0.01623249	     -0.00599345	      6.99420154	      5.81155269	     -4.25568815	     25.39513491	    110.58346747	     -0.00160462	      0.02266092	     -0.00444080	     78.05507668	     63.52452467	     -5.29340720	     14.01719006	      2.69055662
      4.15254240	     -7.63862503	     -1.25913852	     -0.34163709	      0.28978796	      0.92707828	     -0.00499301	      5.64875010	     -4.94626376	    -12.94414504	      2.68338958	      0.04683398	     -0.96023313	    -10.61289568	     -7.49999987	      8.12821783	     -4.64295843	    -14.54003251	      4.03016134	      0.07033958	      8.20771995	      0.63866541	     -7.49999987	      4.25800253	      2.96459455	     -7.75676304	     -0.00015960	     -0.01619764	     -0.00604698	      8.73442248	      5.92788118	     -3.76530079	     24.98770292	    107.35728437	     -0.00077081	      0.02156591	     -0.00448755	     78.26968171	     63.09537406	     -7.80166348	     14.42756799	      2.65517019
      4.16949150	     -7.66454317	     -1.24700685	     -0.35394714	      0.28979973	      0.92467511	     -0.00509588	      5.69624802	     -4.92210580	    -12.89901858	      2.70045086	      0.04713176	     -0.73437571	    -10.60931406	     -7.49999987	      8.16990504	     -4.65144565	    -14.53692975	      4.06976252	      0.07103076	      8.35280477	      0.61647873	     -7.49999987	      4.19349731	      2.83172698	     -7.66934802	     -0.00057027	     -0.01600621	     -0.00599095	      8.03051652	      5.72447147	     -4.19970418	     25.28243675	    110.60622544	     -0.00084076	      0.02096635	     -0.00451429	     78.65460826	     62.47559824	     -7.22499965	     14.19198580	      2.72500822
      4.18644070	     -7.69262086	     -1.28595733	     -0.32335020	      0.28992492	      0.92446134	     -0.00504536	      5.75417645	     -4.82464106	    -12.69648070	      2.72764599	      0.04760640	     -0.66907684	    -10.96627270	     -7.49999987	      8.25094197	     -4.72022424	    -14.47495551	      4.16062629	      0.07261663	      8.48673565	      0.61428224	     -7.49999987	      4.19607498	      2.77179711	     -7.71561961	     -0.00031803	     -0.01571652	     -0.00594836	      9.41564038	      5.84010905	     -3.95085524	     25.16775709	    107.60008173	     -0.00050362	      0.02090449	     -0.00457284	     78.58205385	     61.77859076	     -8.97746524	     15.09129303	      2.68521063
      4.20338980	     -7.77073064	     -1.26858178	     -0.31163300	      0.28995365	      0.92515585	     -0.00512008	      5.85749050	     -4.82889016	    -12.58176910	      2.77839692	      0.04849217	     -0.43795356	    -10.93593138	     -7.49999987	      8.37421802	     -4.71864199	    -14.43244378	      4.21745958	      0.07360856	      8.45425376	      0.48175544	     -7.49999987	      4.21929607	      2.65181696	     -7.67822512	     -0.00060420	     -0.01545047	     -0.00595552	     10.18928200	      5.97583270	     -3.92538961	     25.14301378	    107.28776638	     -0.00074704	      0.02141385	     -0.00460020	     78.41522647	     61.08042115	     -9.21341727	     15.87268329	      2.62168112
      4.22033900	     -7.78370323	     -1.23427590	     -0.31590282	      0.28992848	      0.92780287	     -0.00488574	      5.86631481	     -4.85527244	    -12.49094901	      2.78731576	      0.04864784	     -0.24893999	    -10.88752060	     -7.49999987	      8.39051312	     -4.70561805	    -14.45118552	      4.18950105	      0.07312059	      8.37384310	      0.49664729	     -7.49999987	      4.16893990	      2.56374192	     -7.71652090	      0.00027093	     -0.01551079	     -0.00593168	      9.25001988	      5.83753148	     -4.28689989	     25.39008917	    110.50028927	     -0.00110328	      0.02147923	     -0.00458228	     78.28906167	     60.26195360	     -7.57416969	     15.12693439	      2.67508602
